<svg xmlns="http://www.w3.org/2000/svg" width="100" height="100">
              <symbol id="hpIconSymbol" viewBox="3.84375 5.390625 41.640625 41.66015625">
<g xmlns="http://www.w3.org/2000/svg" fill-rule="nonzero" transform="scale(1,-1) translate(0,-52.46484375)">
<path fill-opacity="1.0" stroke-width="1.0" d="     M 24.6640625,5.4140625     C 36.115234375,5.4140625 45.482421875,14.78125 45.482421875,26.25390625     C 45.482421875,37.705078125 36.115234375,47.072265625 24.6640625,47.072265625     C 13.212890625,47.072265625 3.845703125,37.705078125 3.845703125,26.25390625     C 3.845703125,14.78125 13.212890625,5.4140625 24.6640625,5.4140625     Z     M 24.6640625,38.97265625     C 28.703125,38.97265625 31.904296875,35.36328125 31.904296875,31.087890625     C 31.904296875,26.533203125 28.7890625,23.009765625 24.6640625,23.009765625     C 20.560546875,23.009765625 17.423828125,26.533203125 17.423828125,31.087890625     C 17.40234375,35.36328125 20.646484375,38.97265625 24.6640625,38.97265625     Z     M 38.693359375,13.62109375     L 38.693359375,13.3203125     C 35.578125,9.75390625 30.80859375,7.025390625 24.6640625,7.025390625     C 18.51953125,7.025390625 13.75,9.75390625 10.634765625,13.3203125     L 10.634765625,13.62109375     C 13.341796875,16.9296875 19.185546875,19.29296875 24.6640625,19.29296875     C 30.1640625,19.29296875 35.986328125,16.9296875 38.693359375,13.62109375     Z "/>
</g>
</symbol>

              <g class="background">
                <rect width="100%" height="100%" fill="none" rx="0%" ry="0%" x="0%" y="0%" stroke-width="0%" stroke="none"/>
              </g>

              <use xlink:href="#hpIconSymbol" xmlns:xlink="http://www.w3.org/1999/xlink" class="content" fill="rgb(224, 88, 88)" transform-origin="center" style="transform: scale(1) rotate(0deg);"/>
            </svg>