<svg xmlns="http://www.w3.org/2000/svg" width="100" height="100">
              <symbol id="hpIconSymbol" viewBox="0 0 24 24"><path xmlns="http://www.w3.org/2000/svg" d="M13 3c-4.97 0-9 4.03-9 9H1l3.89 3.89.07.14L9 12H6c0-3.87 3.13-7 7-7s7 3.13 7 7-3.13 7-7 7c-1.93 0-3.68-.79-4.94-2.06l-1.42 1.42C8.27 19.99 10.51 21 13 21c4.97 0 9-4.03 9-9s-4.03-9-9-9zm-1 5v5l4.28 2.54.72-1.21-3.5-2.08V8H12z"/></symbol>

              <g class="background">
                <rect width="100%" height="100%" fill="none" rx="0%" ry="0%" x="0%" y="0%" stroke-width="0%" stroke="none"/>
              </g>

              <use xlink:href="#hpIconSymbol" xmlns:xlink="http://www.w3.org/1999/xlink" class="content" fill="rgb(2, 62, 138)" transform-origin="center" style="transform: scale(1) rotate(0deg);"/>
            </svg>