<svg xmlns="http://www.w3.org/2000/svg" width="100" height="100">
              <symbol id="hpIconSymbol" viewBox="0 0 24 24"><path xmlns="http://www.w3.org/2000/svg" d="M19 3h-1V1h-2v2H8V1H6v2H5c-1.11 0-2 .9-2 2v14c0 1.1.89 2 2 2h14c1.1 0 2-.9 2-2V5c0-1.1-.9-2-2-2zm-7 3c1.66 0 3 1.34 3 3s-1.34 3-3 3-3-1.34-3-3 1.34-3 3-3zm6 12H6v-1c0-2 4-3.1 6-3.1s6 1.1 6 3.1v1z"/></symbol>

              <g class="background">
                <rect width="100%" height="100%" fill="none" rx="0%" ry="0%" x="0%" y="0%" stroke-width="0%" stroke="none"/>
              </g>

              <use xlink:href="#hpIconSymbol" xmlns:xlink="http://www.w3.org/1999/xlink" class="content" fill="rgb(2, 62, 138)" transform-origin="center" style="transform: scale(1) rotate(0deg);"/>
            </svg>