<svg xmlns="http://www.w3.org/2000/svg" width="100" height="100">
              <symbol id="hpIconSymbol" viewBox="0 0 56 56"><path xmlns="http://www.w3.org/2000/svg" d="M 27.9883 47.7344 C 29.1367 47.7344 30.0976 46.8203 30.0976 45.6953 L 30.0976 30.1094 L 45.2383 30.1094 C 46.3633 30.1094 47.3476 29.1484 47.3476 28 C 47.3476 26.8516 46.3633 25.9141 45.2383 25.9141 L 30.0976 25.9141 L 30.0976 10.3047 C 30.0976 9.1797 29.1367 8.2656 27.9883 8.2656 C 26.8398 8.2656 25.9024 9.1797 25.9024 10.3047 L 25.9024 25.9141 L 10.7617 25.9141 C 9.6367 25.9141 8.6524 26.8516 8.6524 28 C 8.6524 29.1484 9.6367 30.1094 10.7617 30.1094 L 25.9024 30.1094 L 25.9024 45.6953 C 25.9024 46.8203 26.8398 47.7344 27.9883 47.7344 Z"/></symbol>

              <g class="background">
                <rect width="100%" height="100%" fill="none" style="--darkreader-inline-fill:none; --darkreader-inline-stroke:none;" data-darkreader-inline-fill="" rx="0%" ry="0%" x="0%" y="0%" stroke-width="0%" stroke="none" data-darkreader-inline-stroke=""/>
              </g>

              <use xlink:href="#hpIconSymbol" xmlns:xlink="http://www.w3.org/1999/xlink" class="content" fill="rgb(93, 101, 105)" transform-origin="center" style="--darkreader-inline-fill:#4b5154; transform: scale(1) rotate(0deg);" data-darkreader-inline-fill=""/>
            </svg>